<svg width="538" height="66" viewBox="0 0 538 66" fill="none" xmlns="http://www.w3.org/2000/svg">
<path d="M430.899 20.5535V0H365.461V41.2104H408.984V45.3403H365.461V65.9986H430.899V24.6849H387.274V20.5535H430.899Z" fill="#0E0E18"/>
<path d="M462.87 0H440.017V65.9986H462.87V0Z" fill="#0E0E18"/>
<path d="M537.429 20.5535V0H471.989V41.2104H515.512V45.3403H471.989V65.9986H537.429V24.6849H493.802V20.5535H537.429Z" fill="#0E0E18"/>
<path d="M289.863 0V65.9986H312.715V54.6373L312.692 54.633V52.5702H333.478V64.6444H333.488V65.9971H356.238V0H289.863ZM312.693 34.4969V32.9505L312.716 32.9476V21.5864L312.693 21.5835V20.0371H333.479V34.4969H312.693Z" fill="#0E0E18"/>
<path d="M216.749 0V20.5535H238.562V65.9986H260.272V20.5535H282.189V0H216.749Z" fill="#0E0E18"/>
<path d="M172.306 20.5535H183.823H209.181V0H148.933V65.9986H209.181V45.3331H170.748V41.4169H203.987V24.7882H170.748V20.5535H172.306Z" fill="#0E0E18"/>
<path d="M141.257 19.5193V0H77.8948V20.0357H105.942L105.955 20.0271H108.294L77.8948 45.3403V65.9986H141.257V45.3403H114.147L114.132 45.3518H111.254L141.257 19.5193Z" fill="#0E0E18"/>
<path d="M66.3779 0H0V66H66.3779V0Z" fill="#CE181E"/>
</svg>
